<?xml version="1.0" encoding="utf-8"?>
<!-- Generator: Adobe Illustrator 23.0.0, SVG Export Plug-In . SVG Version: 6.00 Build 0)  -->
<svg version="1.1" xmlns="http://www.w3.org/2000/svg" xmlns:xlink="http://www.w3.org/1999/xlink" x="0px" y="0px"
	 viewBox="0 0 259.4 221.57" style="enable-background:new 0 0 259.4 221.57;" xml:space="preserve">
<g id="BACKGROUND">
</g>
<g id="OBJECTS">
	<g>
		<g>
			<path style="fill:#9E9EA6;" d="M55.14,189.85c0,7.55-6.12,13.67-13.67,13.67c-7.55,0-13.67-6.12-13.67-13.67
				c0-7.55,6.12-13.67,13.67-13.67C49.02,176.18,55.14,182.3,55.14,189.85z"/>
			<g>
				<path style="fill:#3A3A51;" d="M50.84,181.82l-0.03,4.99l2.96,4.02l1.34-1.82c-0.14-2.31-0.87-4.56-2.11-6.51L50.84,181.82z"/>
				<path style="fill:#3A3A51;" d="M52.02,198.54L52,196.27l-4.76,1.52l-2.91,4.05l2.15,0.72
					C48.63,201.72,50.55,200.33,52.02,198.54z"/>
				<polygon style="fill:#3A3A51;" points="41.47,184.41 36.31,188.16 38.28,194.23 44.66,194.23 46.63,188.16 				"/>
				<path style="fill:#3A3A51;" d="M41.47,180.02l4.74-1.57l-1.32-1.85c-1.12-0.29-2.27-0.43-3.42-0.43c-1.16,0-2.31,0.15-3.42,0.43
					l-1.32,1.85L41.47,180.02z"/>
				<path style="fill:#3A3A51;" d="M38.61,201.85l-2.92-4.06l-4.75-1.52l-0.02,2.27c1.48,1.79,3.39,3.18,5.54,4.03L38.61,201.85z"/>
				<path style="fill:#3A3A51;" d="M29.17,190.83l2.96-4.02l-0.02-4.99l-2.16,0.68c-1.24,1.95-1.97,4.2-2.11,6.51L29.17,190.83z"/>
			</g>
			<g>
				<path style="fill:#F7F7F7;" d="M50.79,181.55l2,0.63c-1.8-2.66-4.46-4.59-7.53-5.47l1.22,1.71
					C48.74,179.31,50.57,181.3,50.79,181.55z"/>
				<path style="fill:#F7F7F7;" d="M32.16,181.55c1.54-1.87,4-2.99,4.3-3.13l1.22-1.71c-3.07,0.88-5.72,2.81-7.53,5.47L32.16,181.55
					z"/>
				<path style="fill:#F7F7F7;" d="M50.65,186.99l-3.78,1.22l-1.99,6.12l2.33,3.22l4.82-1.54c0.18-0.32,1.46-2.6,1.6-4.93
					L50.65,186.99z"/>
				<path style="fill:#F7F7F7;" d="M50.58,186.76l0.02-5.06c-0.25-0.27-2.02-2.19-4.19-3.05l-4.81,1.59l0,3.96l5.21,3.78
					L50.58,186.76z"/>
				<path style="fill:#F7F7F7;" d="M41.65,202.32c-1.44,0-2.63-0.24-2.84-0.29l-1.99,0.67c1.49,0.54,3.05,0.81,4.65,0.81
					c1.6,0,3.17-0.27,4.65-0.81l-1.99-0.66C43.31,202.25,42.44,202.32,41.65,202.32z"/>
				<path style="fill:#F7F7F7;" d="M55.14,189.85c0-0.15,0-0.3-0.01-0.45l-1.24,1.68c-0.15,2.42-1.47,4.77-1.64,5.06l0.02,2.09
					C54.12,195.85,55.14,192.88,55.14,189.85z"/>
				<path style="fill:#F7F7F7;" d="M35.73,197.55l2.34-3.21l-1.99-6.12l-3.78-1.23l-3,4.08c0.04,0.37,0.35,2.96,1.6,4.93
					L35.73,197.55z"/>
				<path style="fill:#F7F7F7;" d="M38.88,201.8c0.36,0.08,2.92,0.58,5.19,0l2.96-4.11l-2.33-3.22h-6.43l-2.34,3.22L38.88,201.8z"/>
				<path style="fill:#F7F7F7;" d="M27.81,189.4c0,0.15-0.01,0.3-0.01,0.45c0,3.04,1.02,6,2.88,8.39l0.02-2.09
					c-1.3-2.04-1.61-4.73-1.64-5.06L27.81,189.4z"/>
				<path style="fill:#F7F7F7;" d="M32.35,181.7l0.03,5.07l3.77,1.23l5.21-3.78l0.01-3.97l-4.81-1.59
					C36.21,178.8,33.84,179.89,32.35,181.7z"/>
			</g>
		</g>
		<g>
			<path style="fill:#FFCFC4;" d="M165.87,65.07c0,0,4.68,0.2,5.89,0.36c1.21,0.16,6.99,0.55,12.25-0.13
				c5.25-0.69,24.34-3.9,25.82-4.4c1.48-0.51,6.74-2.48,7.72-3.14c0.97-0.66,2.33-1.97,2.59-2.4c0.25-0.43-0.15-3.16-0.01-4.3
				c0.11-0.41,0.79-1.8,0.16-2.34c-0.63-0.53-1.5-1.13-1.75-1.08c-0.25,0.06-2.25,0.96-2.25,0.96s-1.3-0.48-1.83-0.48
				c-0.54-0.01-1.36,0.23-1.82,0.83c-0.47,0.59-2.49,3.77-3.13,4.48c-0.64,0.71-4.19,1.35-11.07,1.56
				c-6.88,0.2-12.53-1.38-19.15-1.14c-5.22,0.19-7.68,0.09-7.68,0.09c-3.11-1.29-9.18-3.02-9.18-3.02l-5.62,11.68
				C156.81,62.59,161.71,64.13,165.87,65.07z"/>
			<path style="fill:#FFCFC4;" d="M97.64,64.45c0,0-3.34,3.28-4.29,4.06c-0.94,0.78-5.18,4.73-8.27,9.03
				c-3.09,4.3-13.78,20.43-14.42,21.86c-0.64,1.43-2.79,6.62-2.98,7.78c-0.18,1.16-0.15,3.05-0.01,3.53
				c0.14,0.48,2.41,2.05,3.15,2.94c0.23,0.36,0.78,1.81,1.6,1.71c0.82-0.09,1.85-0.32,1.98-0.54c0.13-0.22,0.84-2.29,0.84-2.29
				s1.23-0.62,1.6-1.01c0.37-0.39,0.75-1.15,0.64-1.89c-0.12-0.75-1.05-4.39-1.13-5.34c-0.08-0.95,1.87-3.98,6.42-9.15
				c4.55-5.17,9.56-8.21,13.91-13.21c3.43-3.94,5.18-5.67,5.18-5.67c3.07-1.39,8.48-4.64,8.48-4.64l-4.69-12.08
				C105.64,59.53,101.18,62.06,97.64,64.45z"/>
			<path style="fill:#CF304E;" d="M118.77,152.49c0,0,2.76,1.38,7.43-1.12c4.66-2.5,36.79-20.9,38.34-21.76
				c1.55-0.86,0.26-4.71-1.73-5.48c-1.99-0.78-3.76,0-4.71,0.26c-0.95,0.26-11.79,4.32-16.45,5.22c-4.66,0.91-8.51-0.04-16.58,3.71
				c-8.07,3.76-10.1,9.41-9.71,12.74C115.74,149.38,117.73,152.2,118.77,152.49z"/>
			<path style="fill:#F09A92;" d="M115.35,146.06c0.39,3.33,2.37,6.14,3.41,6.43c0,0,2.29,1.13,6.22-0.55
				c0.96-4.18,2.05-11.81-0.64-18.26C116.89,137.44,114.98,142.84,115.35,146.06z"/>
			<path style="fill:#FFCFC4;" d="M95.62,137.68c-1.12,1.36-3.23,4.53-3.84,5.54c-0.62,1-3.55,5.64-3.55,5.64l11.85,9.36
				c0,0,1.61-3.6,2.03-4.38c0.42-0.78,4.91-5.02,4.91-5.02l3.99-2.82c0,0-2.3-7.19-12.34-11.14L95.62,137.68z"/>
			<g>
				<path style="fill:#383D4A;" d="M112.63,149.15c0,0,1.04,2.78,6.02,5.51c5.96-9.26,9.46-21.18,9.46-21.18h-5.83L112.63,149.15z"
					/>
				<path style="fill:#4A5061;" d="M105.12,113.37c0,0-0.47,5.7-0.39,9.07c-3.71,5.79-8.16,13.08-9.11,15.24
					c0,0,1.64-0.22,4.02,1.81s8.33,8.12,8.33,8.12l-0.95,1.21c0,0,3.41,3.33,8.64,4.19c0.91-1.86,4.14-8.16,4.14-8.16
					s17.12-15.78,20.42-20.77c3.3-4.99,3.89-13.54,3.89-13.54h-25.13L105.12,113.37z"/>
				<path style="fill:#383D4A;" d="M107.02,148.82c0,0,3.41,3.33,8.64,4.19l-7.69-5.4L107.02,148.82z"/>
				<path style="fill:#383D4A;" d="M105.12,113.37c0,0-0.47,5.7-0.39,9.07l7.2-10.46L105.12,113.37z"/>
			</g>
			<path style="fill:#A3263D;" d="M110.92,48.62c-5.93,7-16.35,17.28-16.35,17.28s3.95,7.46,9.49,10.64
				c4.96-3.04,9.56-7.97,9.56-7.97S114.58,55.04,110.92,48.62z"/>
			<path style="fill:#CF304E;" d="M119.89,43.77c0,0-9,3.56-8.97,4.86c0.03,1.3-4.11,28.89-3.46,47.67
				c-1.75,10.04-3.69,18.33-3.37,18.72c0.32,0.39,6.15,1.55,17.23-0.65c11.08-2.2,12.89-2.53,13.93-2.4c1.04,0.13,9,3.37,9.59,3.11
				c0.58-0.26,1.94-8.68,0-22.02c4.79-10.88,10.56-24.87,10.56-24.87s11.53-0.52,12.24-0.58c0.71-0.06,3.89-4.08,4.6-9.07
				c0.71-4.99,1.04-6.74,0.58-6.8c-0.45-0.06-19.17-3.5-20.86-3.89c-1.69-0.39-18.07-5.38-18.07-5.38S127.4,39.3,119.89,43.77z"/>
			<path style="fill:#A3263D;" d="M144.83,93.06c4.79-10.88,10.56-24.87,10.56-24.87s-9.39,4.15-11.72,5.44
				C143.21,78.61,144.83,93.06,144.83,93.06z"/>
			<path style="fill:#FFC64A;" d="M133.88,42.47c0,0-6.48-3.17-13.99,1.3c0,0-0.7,0.28-1.69,0.7c-0.25,1.33-0.31,3.02,0.2,5
				l2.43,7.48c0,0,3.24,0.23,5.89,0.71c4.82-1.81,11.4-7.51,11.79-13.78C135.86,43.07,133.88,42.47,133.88,42.47z"/>
			<path style="fill:#F09A92;" d="M120.97,50.46c0.73,1.6,1.94,4.49,2.68,4.53c0.73,0.04,5.57-1.81,8.12-4.92
				c2.55-3.11,2.38-6.7,2.38-6.7l-3.29-2L120.97,50.46z"/>
			<g>
				<path style="fill:#FFCFC4;" d="M111.86,32.62c-0.21,2.29,0.09,5.18,0.45,6.82c0.37,1.64,0.5,1.86,0.47,2.81
					c-0.02,0.95-0.58,3.56-0.36,3.86c0.23,0.3,2.51,0.61,2.51,0.61s1.93,4.46,2.24,5.3c0.31,0.84,1.07,1.08,2,0.81
					c0.93-0.26,7.79-3.61,9.58-5.59c1.79-1.98,2.58-5.13,2.58-5.13s2.25,0.2,3.82-3.32c1.57-3.52,1.7-12.93-2.57-16.8
					c-4.27-3.87-12.6-3.21-16.2,0.01C112.8,25.22,112.18,29.19,111.86,32.62z"/>
				<path style="fill:#4A5061;" d="M111.8,33.69c0,0,5.08-3.01,6.27-3.49c1.2-0.48,1.74-0.27,2.04,0.19c0.3,0.46,0.92,2.9,1.35,3.07
					c0.43,0.16,3.67-0.3,3.88-0.06c0.21,0.24,2.11,5.52,2.11,5.52s1.49-0.52,1.58-0.68c0.08-0.16,0.13-2.09,0.5-2.78
					c0.38-0.69,1.81-1.51,2.19-1.27c0.38,0.24,2.13,1.33,2.32,2.7c0.19,1.36-1.39,4.62-2.58,5.25c0.89,0.48,2.68,1.26,2.68,1.26
					s2.68-3.17,3.54-8.32c0.86-5.14-0.7-10.09-1.63-11.6c-0.93-1.52-2.65-2.44-2.65-2.44s-4.21-3.02-7.54-2.97
					c-3.32,0.05-7.69,0.8-11.15,3.89c-3.46,3.1-3.88,6.71-3.78,7.93C111.04,31.1,111.8,33.69,111.8,33.69z"/>
			</g>
			<path style="fill:#FFC64A;" d="M120.84,56.43c-0.07,0-0.14,0-0.21,0c-4.09,0-8.47,1.93-11,3.25c-0.05,0.41-0.1,0.83-0.14,1.26
				c2.29-1.25,6.96-3.47,11.15-3.47c0.06,0,0.13,0,0.19,0c5.93,0.1,15.61,2.09,31.57,17.92c0.15-0.35,0.29-0.7,0.43-1.03
				C136.76,58.53,126.9,56.53,120.84,56.43z"/>
			<path style="fill:#A3263D;" d="M115.74,107.11c0,0-5.52-7-8.29-19.66c-0.09,3.07-0.1,6.05,0,8.85c-0.02,0.09-0.03,0.17-0.05,0.25
				C108.82,99.92,111.34,104.16,115.74,107.11z"/>
			<path style="fill:#CF304E;" d="M88.6,148.76c3.89-0.32,9.91,4.27,11.72,8.81c-2.27,6.09-5.7,10.43-11.01,15.42
				C84,177.97,67.88,193,66.58,194.55c-1.29,1.55-2.4,2.53-4.02,2.46c-1.62-0.06-5.96-3.24-3.82-6.61
				c2.14-3.37,16.26-22.73,19.76-28.17c3.5-5.44,9.16-12.63,9.42-12.95C88.18,148.95,88.12,148.77,88.6,148.76z"/>
			<path style="fill:#4A5061;" d="M63.02,192.39c-0.26-1.86-0.92-4.38-2.55-4.52c-1.63-0.14-6.17,1.07-9.58,1.28
				c-3.41,0.22-6.78,0.22-7.73,0.09c-0.95-0.13-2.07,1.21-1.55,2.68c0.52,1.47,1.81,3.89,5.48,5.57c3.67,1.68,7.77,2.07,9.63,2.94
				c1.86,0.86,5.65,2.85,6.78,3.07c1.13,0.22,1.81-0.91,2.03-1.77c0.21-0.86,1.37-5.21,1.08-6.03c-0.29-0.82-1.99-0.49-2.59-1.09
				C63.41,193.99,63.02,192.39,63.02,192.39z"/>
			<path style="fill:#4A5061;" d="M163.48,130.2c0.55,0.48,4.21-0.38,6.71-0.9c2.5-0.52,7.08-0.86,9.07-0.52
				c1.99,0.35,3.71,1.18,4.36,0.68c0.65-0.5,0.39-2.36,0-3.18c-0.39-0.82-2.51-4.15-5.7-5.1c-3.2-0.95-7.73-0.82-9.37-1.34
				c-1.64-0.52-5.92-2.12-6.74-2.16c-0.82-0.04-1.94,1.08-2.12,1.81c-0.17,0.73-2.13,4.47-1.84,4.96c1.07,0.14,3.18,0.66,4.3,2.08
				C163.28,127.97,162.78,129.59,163.48,130.2z"/>
		</g>
	</g>
</g>
</svg>
