<?xml version="1.0" encoding="utf-8"?>
<!-- Generator: Adobe Illustrator 23.0.0, SVG Export Plug-In . SVG Version: 6.00 Build 0)  -->
<svg version="1.1" xmlns="http://www.w3.org/2000/svg" xmlns:xlink="http://www.w3.org/1999/xlink" x="0px" y="0px"
	 viewBox="0 0 189 221.57" style="enable-background:new 0 0 189 221.57;" xml:space="preserve">
<g id="BACKGROUND">
</g>
<g id="OBJECTS">
	<g>
		<g>
			<path style="fill:#9E9EA6;" d="M144.32,138.94c0,7.55-6.12,13.67-13.67,13.67c-7.55,0-13.67-6.12-13.67-13.67
				c0-7.55,6.12-13.67,13.67-13.67C138.2,125.27,144.32,131.39,144.32,138.94z"/>
			<g>
				<path style="fill:#3A3A51;" d="M140.02,130.91L140,135.9l2.96,4.02l1.34-1.82c-0.14-2.31-0.87-4.56-2.11-6.51L140.02,130.91z"/>
				<path style="fill:#3A3A51;" d="M141.2,147.63l-0.02-2.26l-4.76,1.52l-2.91,4.05l2.15,0.72
					C137.82,150.81,139.73,149.42,141.2,147.63z"/>
				<polygon style="fill:#3A3A51;" points="130.66,133.5 125.5,137.25 127.46,143.32 133.84,143.32 135.82,137.25 				"/>
				<path style="fill:#3A3A51;" d="M130.66,129.11l4.74-1.57l-1.32-1.85c-1.12-0.29-2.27-0.43-3.42-0.43
					c-1.16,0-2.31,0.15-3.42,0.43l-1.32,1.85L130.66,129.11z"/>
				<path style="fill:#3A3A51;" d="M127.8,150.94l-2.92-4.05l-4.75-1.52l-0.02,2.27c1.48,1.79,3.39,3.18,5.54,4.03L127.8,150.94z"/>
				<path style="fill:#3A3A51;" d="M118.36,139.92l2.96-4.02l-0.02-4.99l-2.16,0.69c-1.24,1.95-1.97,4.2-2.11,6.51L118.36,139.92z"
					/>
			</g>
			<g>
				<path style="fill:#F7F7F7;" d="M139.97,130.64l2,0.63c-1.8-2.66-4.46-4.59-7.53-5.47l1.22,1.71
					C137.92,128.4,139.75,130.39,139.97,130.64z"/>
				<path style="fill:#F7F7F7;" d="M121.34,130.64c1.54-1.87,4-2.99,4.3-3.13l1.22-1.71c-3.07,0.88-5.72,2.81-7.53,5.47
					L121.34,130.64z"/>
				<path style="fill:#F7F7F7;" d="M139.83,136.08l-3.78,1.22l-1.99,6.12l2.33,3.22l4.82-1.54c0.18-0.32,1.46-2.6,1.6-4.93
					L139.83,136.08z"/>
				<path style="fill:#F7F7F7;" d="M139.76,135.85l0.02-5.06c-0.25-0.27-2.02-2.19-4.19-3.05l-4.81,1.59l0,3.96l5.21,3.78
					L139.76,135.85z"/>
				<path style="fill:#F7F7F7;" d="M130.84,151.41c-1.44,0-2.63-0.24-2.84-0.29l-1.99,0.66c1.49,0.54,3.05,0.81,4.65,0.81
					c1.6,0,3.17-0.27,4.65-0.81l-1.99-0.67C132.49,151.34,131.62,151.41,130.84,151.41z"/>
				<path style="fill:#F7F7F7;" d="M144.32,138.94c0-0.15,0-0.3-0.01-0.45l-1.24,1.68c-0.15,2.42-1.47,4.77-1.64,5.06l0.02,2.09
					C143.3,144.94,144.32,141.97,144.32,138.94z"/>
				<path style="fill:#F7F7F7;" d="M124.91,146.64l2.34-3.21l-1.99-6.12l-3.78-1.23l-3,4.08c0.04,0.37,0.35,2.96,1.6,4.93
					L124.91,146.64z"/>
				<path style="fill:#F7F7F7;" d="M128.06,150.89c0.36,0.08,2.92,0.58,5.19,0l2.96-4.11l-2.33-3.22h-6.43l-2.34,3.22L128.06,150.89
					z"/>
				<path style="fill:#F7F7F7;" d="M116.99,138.49c0,0.15-0.01,0.3-0.01,0.45c0,3.04,1.02,6,2.88,8.39l0.02-2.09
					c-1.3-2.04-1.61-4.73-1.64-5.06L116.99,138.49z"/>
				<path style="fill:#F7F7F7;" d="M121.53,130.79l0.03,5.07l3.77,1.23l5.21-3.79l0.01-3.97l-4.81-1.59
					C125.39,127.89,123.02,128.99,121.53,130.79z"/>
			</g>
		</g>
		<g>
			<path style="fill:#FFCFC4;" d="M39.2,44.28c1.98,9.77,2.04,9.95,3.61,13.67c1.57,3.72,2.38,6.81,2.38,6.81l4.71-1.63L51.94,75
				c0,0-6.81,1.92-9.25,2.33c-2.44,0.41-4.19,0.12-4.54-0.81c-0.35-0.93-3.03-5.64-3.49-10.35c-0.47-4.71-0.29-19.78-1.1-21.46
				c-0.82-1.69-2.91-4.13-3.08-5.41c-0.17-1.28-0.41-2.68,0.35-3.78c0.76-1.11,4.07-2.68,4.89-3.14c0.81-0.47,0.99-1.23,1.92-1.02
				c0.93,0.21,2.5,2.83,2.68,3.35c0.17,0.52,0.64,2.33,0.81,2.5c0.35,0.47,1.22,1.28,1.34,2.04c0.12,0.76-0.93,1.81-1.34,2.5
				C40.72,42.42,39.06,43.56,39.2,44.28z"/>
			<path style="fill:#FFCFC4;" d="M120.14,64.43c0,0,2.8,2.43,3.58,2.99c0.78,0.57,4.32,3.48,6.96,6.73
				c2.64,3.25,11.87,15.46,12.44,16.55c0.58,1.1,2.52,5.09,2.73,6c0.2,0.91,0.27,2.4,0.18,2.78c-0.09,0.38-1.81,1.74-2.34,2.47
				c-0.16,0.3-0.53,1.46-1.18,1.43c-0.65-0.04-1.47-0.16-1.59-0.33c-0.12-0.17-0.77-1.77-0.77-1.77s-1-0.43-1.32-0.72
				c-0.31-0.29-0.65-0.87-0.59-1.47c0.05-0.6,0.62-3.52,0.63-4.27c0.02-0.75-1.67-3.05-5.51-6.91c-3.84-3.85-7.94-6.02-11.62-9.75
				c-2.9-2.94-4.36-4.22-4.36-4.22c-2.49-0.95-6.92-3.25-6.92-3.25l3.11-9.76C113.58,60.94,117.23,62.72,120.14,64.43z"/>
			<path style="fill:#FFCFC4;" d="M78.66,149.1c0.84,7.7,3.55,17.08,4.64,19.52c1.09,2.44,3.22,3.72,5.47,3.96
				c2.25,0.23,7.64,0.78,7.64,0.78c2.06-2.52,3.06-11.56,2.25-14.97l-1.24-0.27c0,0,1.04-7.1,1.32-10.04c0,0-4.47-1.7-9.93-2.09
				c-5.46-0.39-9.26,1.39-9.26,1.39L78.66,149.1z"/>
			<path style="fill:#FFCFC4;" d="M65.5,113.21c-4.13,2.68-11.98,11.34-12.22,12.56c-0.23,1.22,1.34,6.22,1.98,7.62
				c0.64,1.4,15.18-0.76,17.33-1.16c2.15-0.41,6.06-1.53,6.06-1.53s3.42-1.26,4.11-1.61c0.7-0.35-0.06-6.28-3.84-10.88
				c-3.78-4.59-10.18-5.64-10.18-5.64L65.5,113.21z"/>
			<path style="fill:#F09A92;" d="M68.75,112.57l-3.26,0.64c0,0,8.22,7.43,12.08,17.79c0.65-0.18,1.08-0.3,1.08-0.3
				s3.42-1.26,4.11-1.61c0.7-0.35-0.06-6.28-3.84-10.88C75.15,113.62,68.75,112.57,68.75,112.57z"/>
			<path style="fill:#D7E2F7;" d="M78.66,130.71c0,0-0.6,16.83-0.54,17.47c0.06,0.64,0.54,0.93,0.54,0.93s7.26-1.4,14.53,0
				c7.27,1.4,9.54,2.09,9.54,2.09l-0.35-5.21c0.7-4.79,2.56-12.12,2.56-12.12s6.75-10.08,8.23-17.05L78.66,130.71z"/>
			<path style="fill:#E0E0E0;" d="M98.07,136.44c4.92-3.85,11.04-11.48,13.39-14.5c0.75-1.77,1.37-3.53,1.71-5.13l-34.51,13.89
				c0,0-0.6,16.83-0.54,17.47c0.06,0.64,0.54,0.93,0.54,0.93s7.24-1.39,14.51,0L98.07,136.44z"/>
			<path style="fill:#D7E2F7;" d="M72.24,108.39c-1.57,1.22-6.4,3.78-6.46,4.13c-0.06,0.35-0.29,0.7-0.29,0.7s7.97,2.85,11.69,8.03
				c3.72,5.18,3.72,8.26,3.72,8.26l-2.25,1.21c0,0,2.95,4.38,5.89,6.07c1.95-1.45,3.99-4.67,3.99-4.67s14.25-5.45,17.68-7.2
				c3.43-1.74,8.14-6.8,7.56-12.91c-0.58-6.11-1.63-10.12-1.63-10.12L110,97.86H77.13C77.13,97.86,73.76,103.79,72.24,108.39z"/>
			<g>
				<path style="fill:#4A5061;" d="M77.31,48.3c0,0-14.37,6.51-14.72,6.63c-1.4,0.64-14.31,7.21-14.31,7.21s-0.12,8.55,3.37,14.89
					c5.24-0.87,11.81-2.85,11.81-2.85s4.07,15.53,7.39,23.67c0.23,4.77,1.4,10.53,1.4,10.53s4.56-3.79,9.77-4.89
					c16.11-3.37,26.41-4.01,28.16-3.96c0.76,0.58,1.98,2.33,1.98,2.33s2.97-2.56,2.79-3.08c-0.17-0.52-6.57-9.54-10.35-13.49
					c0.7-9.02,1.16-12.04,1.16-12.04l8.84,3.84c0,0,6.05-3.26,6.22-12.8c-6.51-4.94-16.46-10.65-17.51-11.23
					c-1.05-0.58-10.99-3.78-13.09-4.3C88.12,48.24,81.15,46.56,77.31,48.3z"/>
				<path style="fill:#383D4A;" d="M48.92,68.81c0.47,2.61,1.29,5.61,2.74,8.23c5.24-0.87,11.81-2.85,11.81-2.85
					c-0.95-5.45-1.73-11.89-1.73-11.89S52.53,66.6,48.92,68.81z"/>
				<path style="fill:#383D4A;" d="M105.75,73.25l-3.37-1.63c0,0-2.85-2.5-5.24-5.7c0,0,2.09,12.51,2.27,13.03
					c0.81,2.56,5.18,6.34,5.18,6.34L105.75,73.25z"/>
				<path style="fill:#383D4A;" d="M78.66,104.57c-4.56-2.63-7.81-6.71-7.81-6.71c0.23,4.77,1.4,10.53,1.4,10.53
					S74.99,106.1,78.66,104.57C78.66,104.57,78.66,104.57,78.66,104.57z"/>
			</g>
			<path style="fill:#F09A92;" d="M76.14,43.47c0,0-1.05,7.8-0.99,8.26c0.17,1.34,2.97,6.57,8.61,6.57c4.54,0,5.64-5.53,5.64-5.53
				v-9.31H76.14z"/>
			<g>
				<path style="fill:#FFCFC4;" d="M94.23,47.23c-1.37,2.07-0.67,3-2.74,4.75c-2.07,1.75-4.74,2.94-5.54,3.31
					c-0.8,0.36-2.53,0.13-4.17-0.9c-1.64-1.03-6.21-5.85-6.27-11.02c-1.85-1.77-3.49-4.31-1.45-7.94c0.16-1.8,3.35-15.2,12.34-13.37
					c8.99,1.83,11.52,6.14,11.85,10.08c0.34,3.94-0.99,8.62-1.47,9.87C96.3,43.26,95.39,45.46,94.23,47.23z"/>
				<path style="fill:#4A5061;" d="M96.94,41.55c0,0-3.43,0.26-4.18,0.15c-0.75-0.1-9.09-4.72-9.69-5.08
					c-0.6-0.36-1.62-0.26-2.16,0.67c-0.54,0.93-1.84,0.37-2.17,0.94c-0.33,0.56-0.74,2.39-0.74,2.39s-1.08-0.66-1.16-0.91
					c-0.07-0.26,0.53-1.5,0-3.39c-0.53-1.89-2.48-1.64-3.06-0.36c0-1.67-0.19-5.65,2.01-9.87c1.83-3.51,7.43-6.58,14.04-4.45
					c6.61,2.13,9.05,6.17,9.34,10.88C99.44,37.24,97.82,40.32,96.94,41.55z"/>
			</g>
			<path style="fill:#4A5061;" d="M55.07,132.96c2.28-3.05,8.32-6.07,15.31-3.98c2.85,5.41,4.07,9.07,5,15.53
				c0.93,6.46,4.3,22.28,5.18,24.66c0.87,2.38,3.72,6.81,3.72,8.03c0,1.22-6.22,2.15-8.61,1.57c-2.38-0.58-3.72-3.14-3.9-4.01
				c-0.17-0.87-8.2-18.96-10.24-24.26c-2.04-5.29-6.6-16.15-6.63-16.5C54.88,133.66,54.77,133.33,55.07,132.96z"/>
			<path style="fill:#4A5061;" d="M96.4,173.36c0,0,0.31,0.54,1.13,0.54c0.81,0,19.27-0.27,27.49-0.27c8.22,0,13.65,0.82,15.98,1.4
				c2.33,0.58,5.08-0.35,4.85-3.68c-0.23-3.34-1.7-6.01-5.04-5.97c-3.33,0.04-10.24-0.43-17.33-2.68c-7.1-2.25-12.1-4.54-16.29-5
				c-4.19-0.46-8.67,0.67-8.67,0.67S98.93,166.38,96.4,173.36z"/>
			<path style="fill:#D7E2F7;" d="M78.33,176.27c-2.46,0.32-5.81-1.72-6.49-1.29c-0.68,0.43-1.34,1.02-1.53,3.73
				c-0.19,2.71-1.94,6.48-2.75,9c-0.81,2.52-4.3,6.87-5.66,8.96c-1.36,2.09-2.06,2.09-1.36,2.91c0.7,0.81,4.65,1.67,8.76,0.39
				c4.11-1.28,5.94-4.27,7.6-6.05c1.67-1.78,2.37-3.22,4.38-4.3c2.02-1.09,6.46-3.88,7.52-5.35c1.05-1.47,1.13-2.37,0.28-3.49
				c-0.85-1.13-4.03-4.58-4.5-5.04c-0.46-0.46-1.01-0.88-1.94-0.54C81.71,175.53,79.54,176.11,78.33,176.27z"/>
			<path style="fill:#D7E2F7;" d="M141,175.03c-0.21,1.34,2.04,2.81,5.24,5.72c3.2,2.91,4.01,3.49,4.94,5.24
				c0.93,1.75,2.68,5.64,3.84,5.35c1.16-0.29,3.9-3.26,3.66-7.33c-0.23-4.07-0.64-5.53-2.38-7.74c-1.75-2.21-3.66-5.93-4.13-9.02
				c-0.47-3.08-1.75-5.99-2.62-6.52c-0.87-0.52-2.68,0.52-4.65,1.16c-1.98,0.64-5.12,2.21-5.18,2.5c-0.06,0.29,0.17,0.93,0.46,1.11
				c0.29,0.17,2.33,1.98,2.27,4.07C142.4,171.67,141.23,173.55,141,175.03z"/>
		</g>
	</g>
</g>
</svg>
