<?xml version="1.0" encoding="utf-8"?>
<!-- Generator: Adobe Illustrator 23.0.0, SVG Export Plug-In . SVG Version: 6.00 Build 0)  -->
<svg version="1.1" xmlns="http://www.w3.org/2000/svg" xmlns:xlink="http://www.w3.org/1999/xlink" x="0px" y="0px"
	 viewBox="0 0 189 221.57" style="enable-background:new 0 0 189 221.57;" xml:space="preserve">
<g id="BACKGROUND">
</g>
<g id="OBJECTS">
	<g>
		<g>
			<path style="fill:#9E9EA6;" d="M50.14,180.52c0,7.55-6.12,13.67-13.67,13.67c-7.55,0-13.67-6.12-13.67-13.67
				c0-7.55,6.12-13.67,13.67-13.67C44.02,166.85,50.14,172.97,50.14,180.52z"/>
			<g>
				<path style="fill:#3A3A51;" d="M45.84,172.49l-0.03,4.99l2.96,4.02l1.34-1.82c-0.14-2.31-0.87-4.56-2.11-6.51L45.84,172.49z"/>
				<path style="fill:#3A3A51;" d="M47.02,189.21L47,186.95l-4.76,1.52l-2.91,4.05l2.15,0.72C43.63,192.39,45.54,191,47.02,189.21z"
					/>
				<polygon style="fill:#3A3A51;" points="36.47,175.09 31.31,178.84 33.28,184.9 39.66,184.9 41.63,178.84 				"/>
				<path style="fill:#3A3A51;" d="M36.47,170.69l4.74-1.57l-1.32-1.85c-1.12-0.29-2.27-0.43-3.42-0.43c-1.16,0-2.31,0.15-3.42,0.43
					l-1.32,1.85L36.47,170.69z"/>
				<path style="fill:#3A3A51;" d="M33.61,192.52l-2.92-4.05l-4.75-1.52l-0.02,2.27c1.48,1.79,3.39,3.18,5.54,4.03L33.61,192.52z"/>
				<path style="fill:#3A3A51;" d="M24.17,181.51l2.96-4.02l-0.02-4.99l-2.16,0.69c-1.24,1.95-1.97,4.2-2.11,6.51L24.17,181.51z"/>
			</g>
			<g>
				<path style="fill:#F7F7F7;" d="M45.78,172.22l2,0.63c-1.8-2.66-4.46-4.59-7.53-5.47l1.22,1.71
					C43.73,169.98,45.56,171.97,45.78,172.22z"/>
				<path style="fill:#F7F7F7;" d="M27.15,172.22c1.54-1.87,4-2.99,4.3-3.13l1.22-1.71c-3.07,0.88-5.72,2.81-7.53,5.47L27.15,172.22
					z"/>
				<path style="fill:#F7F7F7;" d="M45.64,177.66l-3.78,1.22L39.88,185l2.33,3.22l4.82-1.54c0.18-0.32,1.46-2.6,1.6-4.93
					L45.64,177.66z"/>
				<path style="fill:#F7F7F7;" d="M45.57,177.43l0.02-5.06c-0.25-0.27-2.02-2.19-4.19-3.05l-4.81,1.59l0,3.96l5.21,3.78
					L45.57,177.43z"/>
				<path style="fill:#F7F7F7;" d="M36.65,192.99c-1.44,0-2.63-0.24-2.84-0.29l-1.99,0.66c1.49,0.54,3.05,0.81,4.65,0.81
					c1.6,0,3.17-0.27,4.65-0.81l-1.99-0.67C38.3,192.92,37.44,192.99,36.65,192.99z"/>
				<path style="fill:#F7F7F7;" d="M50.14,180.52c0-0.15,0-0.3-0.01-0.45l-1.24,1.68c-0.15,2.42-1.47,4.77-1.64,5.06l0.02,2.09
					C49.12,186.52,50.14,183.55,50.14,180.52z"/>
				<path style="fill:#F7F7F7;" d="M30.72,188.22l2.34-3.21l-1.99-6.12l-3.78-1.23l-3,4.08c0.04,0.37,0.35,2.96,1.6,4.93
					L30.72,188.22z"/>
				<path style="fill:#F7F7F7;" d="M33.87,192.47c0.36,0.08,2.92,0.58,5.19,0l2.96-4.11l-2.33-3.22h-6.43l-2.34,3.22L33.87,192.47z"
					/>
				<path style="fill:#F7F7F7;" d="M22.81,180.07c0,0.15-0.01,0.3-0.01,0.45c0,3.04,1.02,6,2.88,8.39l0.02-2.09
					c-1.3-2.04-1.61-4.73-1.64-5.06L22.81,180.07z"/>
				<path style="fill:#F7F7F7;" d="M27.34,172.37l0.03,5.07l3.77,1.23l5.21-3.79l0.01-3.97l-4.81-1.59
					C31.2,169.47,28.83,170.57,27.34,172.37z"/>
			</g>
		</g>
		<g>
			<path style="fill:#FFCFC4;" d="M97.88,151.39c0,0,7.13,5.69,9.56,7.19s7.28,2.28,7.28,2.28s5.97-4.56,5.25-13.09l-2.44-0.97
				c-0.5-0.59-5.56-7.91-5.56-7.91l-3.53-3.94C108.44,134.96,101.38,141.52,97.88,151.39z"/>
			<path style="fill:#FFCFC4;" d="M51.16,119.71c-1.44,2.5-5,8.94-5.09,9.69c-0.09,0.75-0.03,3.52,1.28,6.01
				c1.31,2.49,2.94,6.4,2.94,6.4s8.78-5.19,16.12-5.53l-1-2.16l3.38-1.97c1.25-1.03,2.28-4.44,2.28-4.44s-5.22-8.47-16.03-11.47
				C55.04,116.24,52.3,117.69,51.16,119.71z"/>
			<path style="fill:#F09A92;" d="M37.02,77l-0.38,5.13c0,0-1.17,0.88-1.92,1.88s-6.88,8.33-6.88,8.33s-0.17,3.08,2.04,6.21
				c0,0,14.92-8.71,16.88-9.88s2.21-1.63,2.29-2.04c0.08-0.42,1-9.63,1-9.63H37.02z"/>
			<path style="fill:#383D4A;" d="M73.35,129.79c11.25,14.25,24.17,23.25,24.17,23.25c0.58,0,1.33,0,1.33,0s5.19-8.21,11.75-15.46
				l1.38,1.31c0,0,1.75-3.31,1.94-6.56c-2.81-2.19-6.94-4.56-6.94-4.56l-7.75-13.06c-0.81-3.06-1.61-8.72-2.29-11.18
				c-0.68-2.46-7.27-5.13-14.21-2.26c-6.94,2.88-14.06,13.63-15.38,15.25c-1.31,1.63-1.19,4.75,0,6.5
				C68.54,124.77,73.35,129.79,73.35,129.79z"/>
			<path style="fill:#4A5061;" d="M58.22,109.83c-2.69,3.19-7.06,8.63-7.06,8.63v1.25c0,0,5.06-0.13,10.31,4.38s7.31,8.06,7.31,8.06
				s4.75,3.44,5.19,3.25c0.44-0.19,3.44-7.75,3.44-7.75s12.25-8.88,15.19-11.94c2.94-3.06,5.5-8.06,4.13-13.13
				S91.1,89.64,91.1,89.64l-1.63-1.63c0,0-15.06,0-18.31,0S60.22,97.52,58.22,109.83z"/>
			<path style="fill:#FFCFC4;" d="M100.28,50.99c0,0,2.07,2.13,3.51,4.25c0.54,0.8,3.26,4.71,5.16,8.44
				c1.89,3.73,8.31,17.62,8.64,18.82c0.33,1.2,1.39,5.51,1.39,6.44c0.01,0.93-0.24,2.4-0.41,2.76c-0.17,0.36-2.13,1.31-2.81,1.92
				c-0.22,0.26-0.83,1.32-1.45,1.15c-0.63-0.17-1.4-0.47-1.48-0.66c-0.08-0.19-0.38-1.89-0.38-1.89s-0.89-0.64-1.13-0.99
				c-0.24-0.35-0.45-0.99-0.27-1.56c0.18-0.57,1.35-3.3,1.52-4.04c0.18-0.73-0.98-3.33-3.92-7.92c-2.94-4.58-6.49-7.57-9.28-11.99
				C97.16,62.22,96,60.66,96,60.66c-3.97-0.19-8.81-1.21-8.81-1.21l2.77-12.19C89.96,47.25,95.03,48.54,100.28,50.99z"/>
			<path style="fill:#FFC64A;" d="M35.35,55.02c-0.46,10.27-1.13,23.69-1.13,23.69c4.17,2.38,11.04,3.38,17.04,2
				c0,0,0.83-15.33,0.92-20.38C52.27,55.29,37.43,51.21,35.35,55.02z"/>
			<path style="fill:#2D9C86;" d="M41.94,47.39c0,0-6.47,7.06-6.59,7.63s0.44,9.06,6.59,21.13c6.16,12.06,9.72,17.81,9.72,17.81
				s2.44,8.88,6.56,15.88c0,0,13.25-13.75,16.25-15.63c10.88-3.13,16.63-4.56,16.63-4.56s0.88-1.94,0.69-2.56
				c-0.19-0.63-3.5-4.19-3.5-4.19l-9.5-23.31c-2.69-5.44-7.44-18.81-8.25-19.22c-0.81-0.41-15.06,1.16-19.31,2.47
				S41.94,47.39,41.94,47.39z"/>
			<path style="fill:#F09A92;" d="M37.29,48.36c0,0,2.53,0.56,3.75,2.22c1.22,1.66,1.09,3.25,2.06,3.5
				c0.97,0.25,6.27-0.08,8.84-3.84c2.61-3.82,2.31-6.37,2.31-6.37l-2.5-1.63l-4.16-1.88H37.29V48.36z"/>
			<g>
				<path style="fill:#FFCFC4;" d="M30.05,27.71c-0.65,2.32-0.88,5.36-0.81,7.11c0.07,1.76,0.16,2.01-0.04,2.98
					c-0.2,0.97-1.27,3.57-1.09,3.92c0.18,0.35,2.48,1.1,2.48,1.1s1.15,4.96,1.32,5.88c0.17,0.92,0.91,1.31,1.91,1.21
					c1.01-0.1,8.7-2.26,10.92-3.97c2.22-1.71,3.62-4.8,3.62-4.8s2.28,0.62,4.56-2.71c2.28-3.33,4.17-13,0.49-17.8
					c-3.67-4.79-12.38-5.67-16.69-3.02C32.41,20.26,31.02,24.23,30.05,27.71z"/>
				<path style="fill:#4A5061;" d="M29.79,28.79c0,0,5.8-2.15,7.12-2.42c1.32-0.27,1.85,0.05,2.07,0.58
					c0.22,0.53,0.4,3.16,0.82,3.41c0.41,0.25,3.84,0.38,4,0.66c0.17,0.28,1.14,6.08,1.14,6.08s1.64-0.26,1.76-0.4
					c0.12-0.15,0.52-2.13,1.04-2.78c0.51-0.65,2.15-1.22,2.5-0.9c0.34,0.32,1.95,1.77,1.88,3.21c-0.06,1.44-2.3,4.5-3.64,4.93
					c0.83,0.66,3.45,1.19,3.45,1.19s2.43-2.16,4.28-7.3c1.85-5.14,1.17-10.52,0.5-12.26c-0.68-1.74-2.28-3-2.28-3
					s-3.78-3.9-7.21-4.47c-3.43-0.58-8.07-0.62-12.22,1.92c-4.15,2.54-5.26,6.18-5.38,7.47C29.49,25.99,29.79,28.79,29.79,28.79z"/>
			</g>
			<path style="fill:#FFC64A;" d="M70.54,40.36c-1.35,2.64-1.35,14.59,8.73,20.41c7.16,1.39,12.29,1.98,12.29,1.98
				s4.21-7.12,3.17-15.67c0,0-22.25-6.61-22.69-6.75C71.6,40.18,70.87,40.29,70.54,40.36z"/>
			<path style="fill:#237867;" d="M58.22,109.83c0,0,13.25-13.75,16.25-15.63c0,0-13.04,5.7-19.55,8.96
				C55.85,105.36,56.96,107.68,58.22,109.83z"/>
			<path style="fill:#FFCFC4;" d="M29.66,90.89c-0.85-0.58-4.04-2.31-4.5-2.48c-0.46-0.17-1.58-0.1-1.83,0.15s-0.67,2.1-0.71,2.17
				c-0.44,0.6-2.12,2.56-2.08,2.9c0.04,0.33,1.54,4.23,2.06,5.13c0.52,0.9,1.67,1.79,1.94,2c0.27,0.21,1.29,0.21,1.79,0
				s6.98-4.01,7.53-4.53C32.27,93.81,29.66,90.89,29.66,90.89z"/>
			<path style="fill:#2D9C86;" d="M66.19,135.78c-3.93-0.36-11.3,1.64-16.05,5.66c0,0-0.29,0.52,0.15,1.36
				c0.44,0.84,17.37,37.41,18.94,40.78c1.56,3.38,2.56,6.77,6,6.51c3.44-0.26,6.25-3.95,5.31-6.51c-0.94-2.56-3-6.13-3.75-8.13
				s-4.6-19.75-5.48-25.67S68.77,138.73,66.19,135.78z"/>
			<g>
				<path style="fill:#FFC64A;" d="M69.26,141.35c-0.26-0.71-0.54-1.37-0.84-2c-8.63,0.26-14.41,3.81-17.02,5.83
					c0.26,0.55,0.55,1.18,0.88,1.88C54.51,145.29,60.39,141.43,69.26,141.35z"/>
				<path style="fill:#FFC64A;" d="M51.03,144.38c2.25-1.81,8.13-5.69,17-5.83c-0.18-0.35-0.38-0.67-0.58-1
					c-8.73,0.29-14.44,3.95-16.87,5.88C50.71,143.69,50.86,144.01,51.03,144.38z"/>
				<path style="fill:#FFC64A;" d="M69.83,143.05c-0.1-0.34-0.21-0.67-0.32-1c-8.55,0.15-14.29,3.53-16.97,5.56
					c0.14,0.3,0.29,0.62,0.44,0.95C55.52,146.63,61.32,143.12,69.83,143.05z"/>
			</g>
			<path style="fill:#2D9C86;" d="M114.72,160.86c0,0,0.22,0.41,0.81,0.59c0.59,0.19,21.56,6.56,31.19,10.75s11.75,5.5,13.06,6.25
				c1.31,0.75,4-2.56,3.13-6.19s-2.31-5.13-2.31-5.13s-4.63-0.44-7.88-1.94s-12.63-7.69-17.06-11.31c-4.44-3.63-5-4.5-7.69-5.19
				c-2.69-0.69-8.16-1.34-8.16-1.34l-0.35,0.21C119.47,147.57,119.63,154.55,114.72,160.86z"/>
			<g>
				<path style="fill:#FFC64A;" d="M121.11,162.41c2.27-3.06,4.11-8.79,3.62-14.35c-0.7-0.12-1.4-0.22-2.04-0.32
					c0.69,5.77-1.48,11.16-3.19,13.47c-0.44,0.6-0.81,0.94-1.08,1.13c0.64,0.2,1.37,0.43,2.17,0.68
					C120.76,162.83,120.94,162.64,121.11,162.41z"/>
				<path style="fill:#FFC64A;" d="M117.52,162.07c0.33-0.32,0.63-0.68,0.88-1.01c2.13-2.88,3.88-8.18,3.57-13.42
					c-0.37-0.05-0.71-0.1-1.01-0.14c0.35,5.06-1.32,10.2-3.36,12.96c-0.42,0.57-0.85,0.99-1.22,1.25
					C116.68,161.81,117.07,161.93,117.52,162.07z"/>
				<path style="fill:#FFC64A;" d="M122.89,162.75c2.26-3.05,4.1-8.84,3.5-14.39c-0.33-0.06-0.68-0.13-1.04-0.19
					c0.68,5.38-1.08,11.04-3.26,13.99c-0.32,0.43-0.65,0.79-0.95,1.05c0.35,0.11,0.71,0.23,1.08,0.34
					C122.47,163.28,122.7,163.01,122.89,162.75z"/>
			</g>
			<path style="fill:#4A5061;" d="M74.85,184.49c-1.83-0.66-5.7-2.51-6.27-2.29c-0.57,0.22-1.54,1.85-3.2,3.93
				c-1.66,2.08-2.91,3.33-4.74,4.58s-6.13,3.79-6.63,4.25c-0.5,0.46-0.79,2.54,2.21,3.33c3,0.79,8.37,1,11.25,0s8.42-2.96,9.58-3.13
				s6.83-1.18,7.46-1.72c0.63-0.53,0.79-1.7,0.38-2.57s-3.13-6.67-3.5-7.13s-1.04-0.64-1.04-0.64S78.64,184.94,74.85,184.49z"/>
			<path style="fill:#4A5061;" d="M160.81,173.71c-0.58,1.46-2.59,3.1-2.56,3.88c0.02,0.79,1.4,2.12,3.65,4.87s5.33,6.87,6.71,9.04
				c1.38,2.17,1.67,3.13,2.46,2.92c0.79-0.21,3.63-3.08,2.92-8.25c-0.71-5.17-1.46-6.03-2.67-7.6c-1.21-1.57-2.63-5.07-2.88-6.4
				c-0.25-1.33-1.37-6.38-2.27-6.92c-0.9-0.54-3.07-0.17-4.15,0c-1.08,0.17-3.27,1.16-3.01,1.69c0.26,0.52,1.8,1.86,2.01,4.11
				S160.81,173.71,160.81,173.71z"/>
		</g>
	</g>
</g>
</svg>
